<svg width="90" height="90" viewBox="0 0 90 90" fill="none" xmlns="http://www.w3.org/2000/svg">
<g clip-path="url(#clip0_51_21092)">
<path opacity="0.7" d="M45.0748 0C45.0748 0 38.6406 6.9013 38.6406 17.0902C38.6406 27.2792 45.0748 33.5206 45.0748 33.5206C45.0748 33.5206 51.3562 25.7974 51.3562 16.7603C51.3562 7.72321 45.0748 0 45.0748 0Z" fill="url(#paint0_linear_51_21092)"/>
<path d="M88.1235 49.9624C87.0941 48.4826 85.8454 47.6314 84.4158 47.4245C83.8584 47.3511 83.2919 47.3789 82.745 47.5065V32.5676C82.7752 32.4561 82.7907 32.3413 82.7912 32.226C82.7912 28.3878 65.8774 25.2759 45.0105 25.2759C24.1437 25.2759 7.23188 28.3878 7.23188 32.226C7.23582 32.2863 7.24388 32.3463 7.25601 32.4056V47.5201C6.70868 47.3909 6.14126 47.3624 5.58312 47.4362C4.15554 47.6314 2.90691 48.4865 1.87744 49.9741C-0.121173 52.842 -0.535373 56.9535 0.709238 61.2603C2.10465 66.0512 5.20311 70.065 8.86254 71.8768C10.1275 75.0318 12.0512 77.8987 14.5125 80.2969C21.1056 86.7394 31.362 90.0115 45.0005 90.0115C58.3152 90.0115 68.4189 86.7336 75.032 80.2676C77.44 77.916 79.3601 75.137 80.688 72.0817C84.5425 70.3852 87.84 66.2347 89.2917 61.2486C90.5464 56.9418 90.1201 52.8303 88.1235 49.9624ZM3.14216 60.5789C2.09057 56.9731 2.39218 53.6034 3.97056 51.3388C4.57376 50.4642 5.23729 49.9722 5.92494 49.8668C6.01865 49.8519 6.11349 49.8447 6.20845 49.8453C6.56202 49.852 6.90986 49.9333 7.22786 50.0835V64.6104C7.24348 65.762 7.38229 66.9089 7.64206 68.0327C5.6535 66.221 4.00675 63.5503 3.14216 60.5789ZM73.2385 78.5262C67.1159 84.5099 57.6155 87.5457 45.0005 87.5457C32.0899 87.5457 22.4487 84.5334 16.3463 78.5926C9.84174 72.2594 9.78544 64.6924 9.78544 64.6104V34.7405C15.2605 37.3371 28.9613 39.1781 45.0105 39.1781C61.0598 39.1781 74.7264 37.341 80.2155 34.7503V63.3668C80.2175 63.4488 80.1934 71.7264 73.2385 78.5262ZM86.8588 60.5789C85.9942 63.5503 84.3475 66.221 82.3589 68.0327C82.6187 66.9089 82.7575 65.762 82.7731 64.6104V50.0815C83.1707 49.8899 83.6169 49.814 84.0579 49.8629C84.7516 49.9605 85.4151 50.4485 86.0304 51.3388C87.6068 53.6034 87.9104 56.9711 86.8588 60.5789Z" fill="url(#paint1_linear_51_21092)"/>
<path d="M40.1127 56.134C40.2292 55.8361 40.2219 55.5059 40.0923 55.2132C39.9627 54.9204 39.721 54.6881 39.4182 54.5651C39.1154 54.4422 38.7753 54.4384 38.4697 54.5545C38.1641 54.6705 37.9169 54.8974 37.7803 55.1871C37.6959 55.3823 35.659 59.8979 30.5861 59.8979C25.5594 59.8979 23.8222 55.435 23.7498 55.2457C23.6347 54.9414 23.4004 54.6936 23.098 54.5564C22.7956 54.4192 22.4495 54.4036 22.1353 54.5131C21.8211 54.6226 21.5642 54.8483 21.4207 55.141C21.2772 55.4336 21.2586 55.7695 21.3692 56.0754C21.4637 56.3311 23.7538 62.3539 30.5861 62.3539C37.3782 62.3539 40.0122 56.3858 40.1127 56.134Z" fill="#54404D"/>
<path d="M67.9204 54.5332C67.6115 54.4078 67.2641 54.4062 66.954 54.5287C66.6439 54.6513 66.3964 54.888 66.2656 55.1873C66.1832 55.3825 64.1464 59.8981 59.0734 59.8981C54.0467 59.8981 52.3095 55.4352 52.2371 55.2458C52.122 54.9415 51.8877 54.6938 51.5853 54.5565C51.2829 54.4193 50.9368 54.4038 50.6226 54.5133C50.3084 54.6228 50.0515 54.8485 49.908 55.1411C49.7645 55.4338 49.746 55.7697 49.8565 56.0755C49.951 56.3313 52.2411 62.3541 59.0734 62.3541C65.8574 62.3541 68.4914 56.3879 68.6 56.1341C68.7281 55.8343 68.7284 55.4974 68.601 55.1973C68.4736 54.8972 68.2289 54.6584 67.9204 54.5332V54.5332Z" fill="#54404D"/>
<path d="M53.6802 66.3797C53.3716 66.2542 53.0243 66.2523 52.7143 66.3745C52.4043 66.4966 52.1566 66.7329 52.0254 67.0318C51.9429 67.227 49.9061 71.7426 44.8332 71.7426C39.8065 71.7426 38.0693 67.2817 37.9969 67.0904C37.8818 66.7861 37.6475 66.5383 37.3451 66.4011C37.0426 66.2639 36.6966 66.2483 36.3824 66.3578C36.0682 66.4673 35.8113 66.693 35.6678 66.9857C35.5242 67.2783 35.5057 67.6142 35.6162 67.9201C35.7107 68.1778 38.0009 74.1986 44.8332 74.1986C51.6172 74.1986 54.2512 68.2344 54.3598 67.9806C54.4234 67.8322 54.4564 67.673 54.4567 67.5122C54.457 67.3514 54.4247 67.1921 54.3616 67.0435C54.2984 66.8948 54.2058 66.7597 54.0889 66.6458C53.972 66.5319 53.8331 66.4415 53.6802 66.3797V66.3797Z" fill="#CFB8F1"/>
<path d="M45.2241 36.2674C63.2848 36.2674 77.9258 34.4188 77.9258 32.1383C77.9258 29.8579 63.2848 28.0093 45.2241 28.0093C27.1635 28.0093 12.5225 29.8579 12.5225 32.1383C12.5225 34.4188 27.1635 36.2674 45.2241 36.2674Z" fill="white"/>
<path opacity="0.7" d="M66.8551 7.53223C66.8551 7.53223 57.3727 8.94568 50.7455 16.8387C44.1183 24.7318 45.0453 33.5209 45.0453 33.5209C45.0453 33.5209 54.9378 31.3832 60.8231 24.3687C66.7083 17.3541 66.8551 7.53223 66.8551 7.53223Z" fill="url(#paint2_linear_51_21092)"/>
<path opacity="0.7" d="M23.1543 7.53223C23.1543 7.53223 32.6286 8.93982 39.2538 16.8387C45.879 24.7376 44.9561 33.5209 44.9561 33.5209C44.9561 33.5209 35.0636 31.3832 29.1863 24.3765C23.3091 17.3698 23.1543 7.53223 23.1543 7.53223Z" fill="url(#paint3_linear_51_21092)"/>
<path opacity="0.7" d="M26.9527 68.8805C26.9527 70.1697 26.559 71.4301 25.8213 72.502C25.0836 73.574 24.035 74.4095 22.8083 74.9029C21.5815 75.3963 20.2316 75.5254 18.9293 75.2739C17.627 75.0224 16.4307 74.4015 15.4918 73.4899C14.5529 72.5782 13.9134 71.4167 13.6544 70.1522C13.3953 68.8877 13.5283 67.577 14.0364 66.3859C14.5446 65.1948 15.4051 64.1767 16.5091 63.4604C17.6132 62.7441 18.9112 62.3618 20.2391 62.3618C22.0196 62.3618 23.7273 63.0486 24.9863 64.2711C26.2454 65.4936 26.9527 67.1516 26.9527 68.8805V68.8805Z" fill="#FFD9F2"/>
<path opacity="0.7" d="M77.9254 68.8805C77.9254 70.1698 77.5316 71.4302 76.7938 72.5023C76.056 73.5743 75.0073 74.4098 73.7804 74.9031C72.5536 75.3964 71.2036 75.5254 69.9012 75.2737C68.5988 75.022 67.4026 74.401 66.4637 73.4892C65.5249 72.5773 64.8856 71.4156 64.6268 70.151C64.368 68.8864 64.5012 67.5756 65.0097 66.3845C65.5181 65.1934 66.3789 64.1755 67.4833 63.4595C68.5876 62.7434 69.8858 62.3614 71.2137 62.3618C72.0953 62.3618 72.9682 62.5304 73.7826 62.8581C74.597 63.1857 75.337 63.6659 75.9603 64.2712C76.5835 64.8765 77.0779 65.5952 77.415 66.386C77.7522 67.1769 77.9256 68.0245 77.9254 68.8805V68.8805Z" fill="#FFD9F2"/>
</g>
<defs>
<linearGradient id="paint0_linear_51_21092" x1="44.9984" y1="0" x2="44.9984" y2="33.5206" gradientUnits="userSpaceOnUse">
<stop stop-color="#54404D"/>
<stop offset="1" stop-color="#FFD9F2"/>
</linearGradient>
<linearGradient id="paint1_linear_51_21092" x1="45.0024" y1="25.2759" x2="45.0024" y2="90.0115" gradientUnits="userSpaceOnUse">
<stop stop-color="#CFB8F1"/>
<stop offset="1" stop-color="#54404D"/>
</linearGradient>
<linearGradient id="paint2_linear_51_21092" x1="55.928" y1="7.53223" x2="55.928" y2="33.5209" gradientUnits="userSpaceOnUse">
<stop stop-color="#54404D"/>
<stop offset="1" stop-color="#FFD9F2"/>
</linearGradient>
<linearGradient id="paint3_linear_51_21092" x1="34.0771" y1="7.53223" x2="34.0771" y2="33.5209" gradientUnits="userSpaceOnUse">
<stop stop-color="#54404D"/>
<stop offset="1" stop-color="#CFB8F1"/>
</linearGradient>
<clipPath id="clip0_51_21092">
<rect width="90" height="90" fill="white"/>
</clipPath>
</defs>
</svg>
