<?xml version="1.0" standalone="no"?>
<!DOCTYPE svg PUBLIC "-//W3C//DTD SVG 20010904//EN"
 "http://www.w3.org/TR/2001/REC-SVG-20010904/DTD/svg10.dtd">
<svg version="1.0" xmlns="http://www.w3.org/2000/svg"
 width="980.000000pt" height="980.000000pt" viewBox="0 0 980.000000 980.000000"
 preserveAspectRatio="xMidYMid meet">

<g transform="translate(0.000000,980.000000) scale(0.100000,-0.100000)"
fill="#000000" stroke="none">
<path d="M5285 8770 c-180 -27 -318 -116 -419 -270 -87 -133 -126 -267 -126
-440 0 -153 7 -206 106 -730 22 -121 29 -254 14 -290 -15 -36 -38 -49 -140
-80 -41 -12 -91 -30 -110 -40 -19 -9 -60 -20 -91 -23 -81 -8 -145 -42 -219
-116 -127 -128 -192 -299 -194 -506 -1 -138 7 -185 76 -460 79 -312 76 -280
35 -366 -52 -108 -71 -215 -71 -389 0 -160 13 -241 51 -311 30 -56 61 -74 98
-57 93 42 108 276 39 645 -34 185 -34 173 3 195 78 47 211 17 493 -107 328
-145 434 -182 835 -290 255 -69 392 -121 491 -187 231 -155 333 -441 363
-1023 5 -82 6 -156 3 -163 -2 -8 -44 62 -92 155 -145 280 -273 489 -415 678
-318 421 -574 507 -949 318 -239 -120 -472 -325 -749 -661 -62 -74 -179 -217
-261 -316 -482 -583 -694 -769 -1660 -1457 -528 -375 -712 -548 -817 -763 -99
-202 -88 -404 28 -520 153 -152 383 -139 618 36 101 76 316 293 512 518 274
314 470 491 676 612 110 64 368 186 609 287 506 212 739 335 979 513 79 58 99
68 99 47 0 -25 119 -187 198 -271 327 -344 712 -416 979 -183 150 131 237 347
273 674 6 52 12 97 14 99 6 5 62 -145 95 -256 103 -335 73 -561 -99 -733 -156
-157 -300 -167 -749 -54 -97 24 -199 47 -227 50 -99 14 -139 -35 -98 -121 23
-48 156 -172 260 -241 237 -159 424 -227 620 -227 102 0 170 16 229 52 70 44
91 84 111 220 16 107 33 146 72 166 81 41 153 26 343 -73 74 -38 158 -76 188
-85 74 -22 187 -20 301 5 227 48 252 51 385 46 142 -5 191 -16 231 -51 32 -27
28 -50 -19 -96 -72 -72 -163 -101 -418 -135 -383 -51 -516 -105 -959 -383
-443 -279 -556 -341 -760 -419 -246 -94 -447 -128 -718 -121 -263 8 -460 56
-652 161 -258 142 -413 333 -637 785 -63 127 -119 232 -124 232 -29 0 -12 -50
89 -254 159 -324 305 -538 449 -660 400 -338 1041 -407 1626 -175 190 76 327
152 724 400 476 299 588 343 1003 398 220 29 324 64 398 135 90 84 78 153 -34
195 -123 47 -312 45 -524 -4 -156 -36 -269 -43 -346 -20 -32 9 -124 50 -204
91 -167 86 -234 105 -306 86 -98 -26 -126 -66 -148 -214 -20 -132 -42 -173
-114 -206 -49 -23 -72 -27 -172 -30 -155 -5 -241 17 -425 108 -229 114 -445
295 -445 375 0 31 74 24 290 -30 242 -60 328 -75 434 -75 162 1 253 36 356
140 217 218 225 520 25 1012 l-44 106 -5 185 c-12 404 -64 707 -152 893 -87
184 -222 299 -452 383 -45 17 -204 64 -354 105 -368 102 -461 134 -728 254
-329 148 -457 177 -554 126 -21 -10 -31 -11 -36 -4 -18 29 -131 517 -141 604
-23 215 38 422 166 563 52 57 123 104 178 117 l28 7 -25 -38 c-123 -187 -78
-575 95 -809 98 -134 260 -265 484 -392 253 -143 676 -309 935 -367 98 -22
269 -30 345 -16 76 14 168 60 232 116 133 117 269 391 347 702 53 208 66 337
76 713 10 375 8 362 99 687 87 310 105 404 105 558 1 151 -16 211 -83 300 -73
97 -208 141 -298 98 -70 -33 -100 -114 -141 -386 -11 -71 -24 -133 -30 -139
-6 -6 -25 18 -55 70 -42 73 -95 132 -118 132 -5 0 -18 -9 -29 -20 -37 -37 -24
-202 40 -501 47 -219 43 -306 -31 -639 -118 -538 -261 -866 -415 -956 -50 -29
-132 -36 -176 -14 -54 28 -128 94 -203 181 -231 268 -286 326 -379 405 -183
156 -402 286 -553 331 -35 10 -63 21 -63 24 0 4 28 14 63 24 150 42 173 74
164 229 -3 56 -22 189 -42 296 -80 428 -79 417 -79 590 -1 146 2 174 22 240
72 229 228 390 427 439 76 19 217 15 310 -9 216 -55 344 -162 412 -344 12 -31
16 -87 17 -226 2 -223 6 -236 120 -358 42 -45 76 -88 76 -95 0 -8 -22 -33 -50
-56 -59 -50 -75 -95 -85 -241 -7 -111 -22 -194 -41 -232 -17 -33 -62 -58 -103
-58 -86 0 -277 104 -378 206 -48 49 -66 75 -79 119 -17 53 -17 61 -2 128 9 40
34 125 57 190 23 64 47 151 53 193 25 159 -37 293 -171 372 -39 23 -57 27
-121 27 -61 0 -84 -5 -125 -27 -67 -35 -118 -90 -152 -163 -26 -55 -28 -69
-28 -180 0 -173 44 -330 128 -457 46 -69 101 -115 231 -193 138 -83 140 -86
146 -249 5 -126 7 -135 33 -170 42 -55 111 -83 316 -131 102 -24 205 -51 229
-59 95 -34 146 -101 160 -212 6 -50 10 -59 27 -59 17 0 20 6 17 40 -5 62 -29
137 -56 174 -54 73 -117 100 -366 156 -178 40 -262 74 -295 118 -17 24 -21 48
-25 160 -4 117 -8 136 -28 164 -26 36 -73 71 -172 125 -36 20 -84 52 -106 72
-166 143 -256 520 -167 701 21 43 82 103 125 126 126 65 269 5 337 -141 22
-46 26 -68 25 -135 -1 -69 -9 -103 -60 -255 -89 -266 -82 -343 40 -465 69 -68
183 -143 281 -182 156 -64 248 -32 285 97 6 19 17 101 25 181 8 80 17 154 21
165 4 10 31 43 62 71 51 49 54 55 49 89 -5 27 -25 55 -82 116 -107 111 -109
116 -110 338 -1 163 -4 192 -23 244 -49 132 -138 228 -272 294 -137 68 -314
101 -435 82z m1723 -406 c58 -29 92 -65 127 -133 72 -142 57 -331 -57 -731
-99 -348 -99 -345 -108 -715 -5 -181 -14 -373 -20 -425 -48 -398 -215 -816
-388 -971 -54 -49 -137 -93 -203 -108 -215 -50 -641 67 -1129 311 -465 232
-655 422 -736 734 -23 88 -25 113 -21 229 6 154 15 187 68 255 33 42 45 50 72
50 55 0 173 -38 270 -86 251 -126 453 -293 679 -564 191 -228 286 -302 393
-304 207 -3 367 262 515 854 119 476 126 566 65 845 -47 214 -70 435 -46 435
15 0 58 -56 92 -121 35 -65 66 -93 92 -83 26 9 45 75 67 226 23 162 34 207 61
260 36 71 116 87 207 42z m-2709 -3059 c46 -268 50 -444 11 -532 -25 -56 -52
-58 -79 -5 -31 62 -44 149 -44 297 1 149 18 258 54 343 26 60 31 51 58 -103z
m1268 -367 c250 -101 537 -468 850 -1087 118 -234 116 -223 88 -451 -35 -280
-105 -460 -228 -584 -199 -201 -469 -208 -754 -19 -120 79 -276 246 -362 387
l-42 67 53 46 c86 75 217 214 258 274 122 178 149 319 75 389 -36 34 -110 31
-191 -6 -87 -41 -211 -168 -254 -259 -30 -62 -34 -81 -38 -175 -3 -93 -1 -114
22 -180 14 -41 22 -77 18 -81 -30 -27 -188 -138 -275 -192 -204 -128 -342
-195 -832 -402 -272 -116 -508 -231 -625 -307 -199 -128 -404 -321 -654 -613
-272 -318 -515 -533 -663 -587 -71 -26 -209 -31 -263 -9 -194 79 -252 302
-140 539 107 226 295 396 970 872 285 202 565 411 700 524 333 279 513 468
923 966 352 427 534 611 739 744 251 163 458 211 625 144z m-82 -1019 c46 -44
10 -179 -86 -320 -48 -73 -275 -302 -293 -296 -23 8 -47 128 -43 219 3 75 8
96 40 161 58 118 170 218 280 252 48 15 73 11 102 -16z"/>
</g>
</svg>
